<svg width="157" height="157" viewBox="0 0 157 157" fill="none" xmlns="http://www.w3.org/2000/svg">
<rect width="157" height="157" rx="46" fill="#2565FF"/>
<path fill-rule="evenodd" clip-rule="evenodd" d="M55.2324 66.29C56.4613 65.1212 57.9004 64.7464 59.5488 65.166C60.7776 65.4957 61.7065 66.2154 62.3359 67.3242C62.8155 68.1635 63.0258 69.0184 62.9658 69.8877C62.9059 70.7568 62.7404 71.7606 62.4707 72.8994C62.4407 73.1991 62.3809 73.4991 62.291 73.7988C62.2396 73.9531 62.1881 74.1172 62.1367 74.291C62.4348 74.137 62.7526 73.9753 63.0859 73.7988C64.105 73.2293 65.1693 72.6145 66.2783 71.9551C67.597 71.1759 68.9905 70.3814 70.459 69.5723C71.9277 68.733 73.3517 68.0135 74.7305 67.4141C76.319 66.6348 77.8029 66.1106 79.1816 65.8408C80.1408 65.601 81.0406 65.4665 81.8799 65.4365C82.7191 65.4066 83.5134 65.4963 84.2627 65.7061C85.9112 66.1857 87.0353 67.2051 87.6348 68.7637C88.0842 69.8726 88.1441 70.9819 87.8145 72.0908C87.5148 73.1696 87.11 74.1885 86.6006 75.1475C86.6056 75.1458 86.6103 75.1433 86.6152 75.1416C86.7106 75.0558 86.81 74.9695 86.9092 74.8779C87.2689 74.4883 87.6585 74.0986 88.0781 73.709C88.7975 72.9896 89.5469 72.2552 90.3262 71.5059C91.1355 70.7565 91.9147 70.0969 92.6641 69.5273C93.1736 69.1377 93.6539 68.7929 94.1035 68.4932C94.5829 68.1936 95.0327 67.9392 95.4522 67.7295C97.0108 66.9802 98.5394 66.7699 100.038 67.0996C101.512 67.5133 102.594 68.3849 103.287 69.7129C103.319 69.6807 103.351 69.6488 103.383 69.6172C103.862 69.1976 104.282 68.8378 104.642 68.5381C105.001 68.2384 105.316 67.9991 105.586 67.8193C107.145 66.8602 108.763 66.5603 110.441 66.9199C112.18 67.3695 113.334 68.3441 113.903 69.8428L113.858 69.7979C113.978 70.0674 114.068 70.3369 114.128 70.6064C114.218 70.8462 114.279 71.1013 114.309 71.3711C114.728 70.9215 115.103 70.5019 115.433 70.1123C115.762 69.6928 116.061 69.3179 116.331 68.9883L116.961 68.2686C117.021 68.2087 117.066 68.1488 117.096 68.0889C117.153 68.0024 117.183 67.9574 117.186 67.9541C117.875 67.1449 118.684 66.5748 119.613 66.2451C120.572 65.8854 121.532 65.8256 122.491 66.0654C123.151 66.2453 123.751 66.5751 124.29 67.0547C124.859 67.5342 125.324 68.0894 125.684 68.7188C126.103 69.6777 126.283 70.5021 126.223 71.1914C126.193 71.8507 126.148 72.3003 126.088 72.54C126.058 72.6599 126.013 72.7946 125.953 72.9443C125.923 73.0942 125.893 73.2297 125.863 73.3496L125.594 74.2031L125.549 74.3389C126.148 74.3689 126.747 74.5334 127.347 74.833C127.946 75.1028 128.441 75.4774 128.831 75.957C129.221 76.4364 129.505 76.961 129.685 77.5303C129.894 78.0998 130 78.6548 130 79.1943C130 80.693 129.385 81.9666 128.156 83.0156L127.932 83.2412C127.302 83.7807 126.628 84.3199 125.908 84.8594C125.219 85.3989 124.484 85.9081 123.705 86.3877C121.937 87.4368 120.198 87.9619 118.489 87.9619C117.77 87.9619 117.05 87.8572 116.331 87.6475C115.792 87.5276 115.282 87.3173 114.803 87.0176C114.353 86.7178 113.964 86.3731 113.634 85.9834C113.274 86.2831 112.929 86.5681 112.6 86.8379C112.27 87.0776 111.895 87.3319 111.476 87.6016H111.521C110.831 88.0812 110.171 88.4867 109.542 88.8164C108.913 89.146 108.313 89.4302 107.744 89.6699C107.265 89.8797 106.724 90.0302 106.125 90.1201C105.556 90.21 105.016 90.2549 104.507 90.2549C104.177 90.2549 103.862 90.2399 103.563 90.21C103.293 90.21 103.082 90.195 102.933 90.165C102.093 89.9252 101.344 89.5356 100.685 88.9961C100.025 88.4866 99.5309 87.8567 99.2012 87.1074C98.9914 86.6878 98.8568 86.3131 98.7969 85.9834C98.738 85.6302 98.7081 85.277 98.707 84.9238C98.5419 84.9796 98.3865 85.0349 98.2393 85.084C97.9396 85.2039 97.6545 85.3095 97.3848 85.3994C97.1452 85.4892 96.9505 85.5641 96.8008 85.624C96.5011 85.684 96.1862 85.7587 95.8565 85.8486C95.5268 85.9385 95.167 85.9834 94.7774 85.9834C94.4177 85.9834 94.013 85.9385 93.5635 85.8486C92.1847 85.489 91.1354 84.6648 90.416 83.376C90.1867 83.4661 89.9545 83.5349 89.7207 83.5869C88.5206 84.0046 87.3907 84.3987 86.3311 84.7695C85.1621 85.1892 84.1277 85.5489 83.2285 85.8486C81.9996 86.2083 80.9802 86.4784 80.1709 86.6582C79.3917 86.808 78.687 86.8828 78.0576 86.8828C77.6381 86.8828 77.1735 86.808 76.6641 86.6582C75.1354 86.2985 74.0861 85.3688 73.5166 83.8701C73.0371 82.7312 73.0521 81.4425 73.5615 80.0039C73.7414 79.4943 74.0114 78.8945 74.3711 78.2051C74.431 78.0853 74.4909 77.9505 74.5508 77.8008C74.6407 77.6509 74.7304 77.5154 74.8203 77.3955C74.1611 77.7551 73.487 78.145 72.7979 78.5645C72.1385 78.954 71.4637 79.3288 70.7744 79.6885C69.5756 80.4377 68.4065 81.1274 67.2676 81.7568C66.4014 82.2127 65.5864 82.6159 64.8242 82.9678C64.6361 83.0844 64.4366 83.1913 64.2246 83.2861C62.9358 83.8556 61.7668 84.4097 60.7178 84.9492C59.6989 85.4886 58.8745 85.9232 58.2451 86.2529C57.6475 86.5816 57.3324 86.747 57.3008 86.748C56.5815 87.1377 55.8619 87.332 55.1426 87.332C54.0335 87.332 53.0889 87.0022 52.3096 86.3428C51.5904 85.7733 51.0959 85.0537 50.8262 84.1846C50.5565 83.2855 50.5415 82.4163 50.7813 81.5772C50.7823 81.575 50.7973 81.545 50.8262 81.4873C50.8561 81.3975 50.8861 81.2926 50.916 81.1729C49.4973 82.0241 48.1889 82.6963 46.9922 83.1924C46.819 83.2766 46.6379 83.3542 46.4473 83.4209C45.5182 83.7806 44.664 84.1104 43.8848 84.4102C43.1055 84.6799 42.4458 84.9041 41.9063 85.084C41.6065 85.2039 41.3215 85.3095 41.0518 85.3994C40.8122 85.4892 40.6176 85.5641 40.4678 85.624C40.1681 85.684 39.8531 85.7587 39.5234 85.8486C39.1938 85.9385 38.8339 85.9834 38.4443 85.9834C38.0847 85.9834 37.68 85.9385 37.2305 85.8486C35.8518 85.489 34.8024 84.6647 34.083 83.376C33.2439 83.7056 32.3747 83.7803 31.4756 83.6006C30.5464 83.3908 29.7512 82.9115 29.0918 82.1621C28.2826 81.233 27.9229 80.1536 28.0127 78.9248C28.0727 77.6659 28.5679 76.6316 29.4971 75.8223C29.8268 75.5525 30.1865 75.2376 30.5762 74.8779C30.9358 74.4883 31.3255 74.0986 31.7451 73.709C32.4645 72.9896 33.2139 72.2552 33.9932 71.5059C34.8024 70.7566 35.5817 70.0968 36.3311 69.5273C36.8406 69.1377 37.32 68.7929 37.7695 68.4932C38.2489 68.1935 38.6987 67.9393 39.1182 67.7295C40.6768 66.9801 42.2064 66.7699 43.7051 67.0996C45.4134 67.5793 46.5975 68.6734 47.2568 70.3818C47.5096 71.1039 47.6026 71.8477 47.54 72.6133C48.491 71.9599 49.6022 71.1274 50.8711 70.1123C52.13 69.0932 53.1643 68.2083 53.9736 67.459C54.8127 66.6799 55.2324 66.29 55.2324 66.29Z" fill="white"/>
</svg>
