<svg width="413" height="101" viewBox="0 0 413 101" fill="none" xmlns="http://www.w3.org/2000/svg">
<path fill-rule="evenodd" clip-rule="evenodd" d="M243.761 31.4824C246.536 28.8422 249.786 27.9956 253.51 28.9433C256.286 29.6881 258.385 31.3133 259.807 33.8183C260.89 35.714 261.363 37.644 261.228 39.6074C261.092 41.5706 260.721 43.8386 260.111 46.4111C260.044 47.0881 259.908 47.7654 259.705 48.4423C259.588 48.7931 259.472 49.1668 259.355 49.5625C260.03 49.214 260.745 48.8416 261.499 48.4423C263.801 47.156 266.205 45.7678 268.71 44.2783C271.689 42.5181 274.837 40.7243 278.154 38.8964C281.472 37.0007 284.688 35.3755 287.803 34.0214C291.391 32.2613 294.742 31.0761 297.856 30.4668C300.023 29.9252 302.054 29.6204 303.949 29.5527C305.845 29.485 307.639 29.6882 309.332 30.1621C313.056 31.2453 315.595 33.5477 316.949 37.0683C317.965 39.5732 318.099 42.0781 317.354 44.583C316.677 47.0203 315.764 49.3227 314.613 51.4892C314.628 51.4843 314.642 51.4785 314.657 51.4736C314.87 51.2818 315.089 51.0845 315.311 50.8798C316.123 49.9997 317.003 49.1193 317.951 48.2392C319.576 46.6144 321.268 44.9552 323.028 43.2627C324.856 41.5701 326.617 40.0812 328.31 38.7949C329.461 37.9147 330.544 37.136 331.56 36.4589C332.643 35.782 333.658 35.2062 334.605 34.7324C338.126 33.0398 341.58 32.5658 344.965 33.3105C348.294 34.245 350.74 36.2129 352.306 39.2129C352.377 39.1406 352.449 39.0689 352.52 38.998C353.603 38.0502 354.551 37.2375 355.363 36.5605C356.176 35.8837 356.886 35.3417 357.495 34.9355C361.016 32.769 364.672 32.0918 368.464 32.9043C372.391 33.9198 374.997 36.1207 376.283 39.5058L376.182 39.4043C376.452 40.0135 376.656 40.6231 376.791 41.2324C376.994 41.7739 377.13 42.3497 377.197 42.9589C378.145 41.9434 378.992 40.9953 379.736 40.1152C380.481 39.1673 381.158 38.3209 381.768 37.5761L383.189 35.9511C383.325 35.8158 383.426 35.6802 383.494 35.5449C383.629 35.3419 383.697 35.2402 383.697 35.2402C385.254 33.4123 387.082 32.1255 389.181 31.3808C391.347 30.5684 393.514 30.4329 395.681 30.9746C397.17 31.3808 398.524 32.1259 399.742 33.2089C401.029 34.2922 402.078 35.545 402.891 36.9668C403.838 39.1333 404.245 40.9955 404.109 42.5527C404.042 44.0417 403.94 45.057 403.805 45.5986C403.737 45.8694 403.635 46.1742 403.5 46.5127C403.432 46.8511 403.365 47.1559 403.297 47.4267L402.688 49.3564L402.586 49.6611C403.94 49.7288 405.294 50.1012 406.648 50.7783C408.003 51.3876 409.12 52.2341 410 53.3173C410.88 54.4005 411.523 55.5858 411.93 56.872C412.403 58.1581 412.641 59.4104 412.641 60.6289C412.641 64.0141 411.252 66.8921 408.477 69.2617L407.969 69.7695C406.547 70.9881 405.023 72.2061 403.398 73.4248C401.841 74.6433 400.183 75.7947 398.423 76.8779C394.428 79.2475 390.501 80.4326 386.642 80.4326C385.017 80.4325 383.392 80.1955 381.768 79.7216C380.549 79.4508 379.398 78.9768 378.314 78.2998C377.299 77.6227 376.419 76.844 375.674 75.9638C374.861 76.6409 374.083 77.2842 373.338 77.8935C372.593 78.435 371.747 79.0109 370.8 79.6201H370.901C369.344 80.7033 367.854 81.6175 366.433 82.3623C365.011 83.107 363.656 83.7503 362.37 84.292C361.287 84.7658 360.068 85.1045 358.714 85.3076C357.428 85.5106 356.209 85.6122 355.059 85.6123C354.314 85.6123 353.603 85.5784 352.926 85.5107C352.317 85.5107 351.842 85.4768 351.504 85.4091C349.608 84.8675 347.915 83.9872 346.426 82.7685C344.936 81.6176 343.819 80.1955 343.074 78.5029C342.6 77.5551 342.297 76.7085 342.161 75.9638C342.028 75.1676 341.962 74.3714 341.959 73.5752C341.586 73.701 341.235 73.8218 340.902 73.9326C340.225 74.2034 339.582 74.4404 338.973 74.6435C338.431 74.8466 337.991 75.0159 337.652 75.1513C336.975 75.2867 336.264 75.456 335.52 75.6591C334.775 75.8622 333.963 75.9638 333.083 75.9638C332.271 75.9638 331.356 75.8622 330.341 75.6591C327.227 74.8467 324.856 72.9853 323.231 70.0742C322.706 70.2807 322.174 70.4406 321.638 70.5586C318.935 71.4991 316.391 72.3863 314.004 73.2216C311.363 74.1695 309.027 74.9821 306.996 75.6591C304.22 76.4715 301.919 77.0811 300.091 77.4873C298.331 77.8258 296.739 77.9951 295.317 77.9951C294.37 77.9951 293.32 77.8258 292.169 77.4873C288.716 76.6748 286.347 74.5762 285.061 71.1914C283.977 68.6186 284.011 65.7068 285.162 62.457C285.568 61.3061 286.178 59.9516 286.99 58.3945C287.126 58.1238 287.261 57.8187 287.396 57.4804C287.599 57.1422 287.803 56.838 288.006 56.5673C286.516 57.3797 284.993 58.2592 283.436 59.207C281.946 60.0871 280.422 60.9336 278.865 61.7461C276.157 63.4386 273.517 64.9962 270.944 66.4179C268.986 67.4484 267.145 68.36 265.423 69.1552C264.999 69.4178 264.549 69.6574 264.071 69.8711C261.16 71.1573 258.52 72.4093 256.15 73.6279C253.848 74.8466 251.986 75.8285 250.564 76.5732C249.21 77.3179 248.499 77.6904 248.432 77.6904C246.807 78.5704 245.182 79.0107 243.558 79.0107C241.053 79.0107 238.919 78.2658 237.159 76.7763C235.534 75.49 234.417 73.8647 233.808 71.9013C233.198 69.8705 233.165 67.9072 233.706 66.0117C233.706 66.0117 233.74 65.9438 233.808 65.8086C233.875 65.6055 233.943 65.3684 234.011 65.0976C230.803 67.0225 227.845 68.5442 225.14 69.665C224.751 69.8533 224.345 70.0262 223.918 70.1757C221.819 70.9882 219.889 71.7321 218.129 72.4091C216.369 73.0185 214.879 73.5264 213.66 73.9326C212.983 74.2034 212.34 74.4404 211.73 74.6435C211.189 74.8466 210.749 75.0159 210.41 75.1513C209.733 75.2867 209.023 75.4561 208.278 75.6591C207.534 75.8622 206.721 75.9638 205.841 75.9638C205.028 75.9638 204.114 75.8623 203.099 75.6591C199.984 74.8467 197.614 72.9854 195.989 70.0742C194.094 70.8187 192.13 70.9881 190.1 70.582C188.001 70.1081 186.206 69.0246 184.717 67.332C182.889 65.2332 182.076 62.7953 182.279 60.0195C182.415 57.1762 183.532 54.8406 185.631 53.0127C186.376 52.4033 187.188 51.6923 188.068 50.8798C188.881 49.9997 189.761 49.1194 190.709 48.2392C192.334 46.6144 194.026 44.9552 195.786 43.2627C197.614 41.5701 199.375 40.0812 201.067 38.7949C202.218 37.9147 203.302 37.136 204.317 36.4589C205.401 35.7819 206.416 35.2063 207.364 34.7324C210.885 33.0399 214.338 32.5658 217.723 33.3105C221.582 34.3938 224.256 36.8655 225.745 40.7246C226.316 42.3565 226.529 44.0373 226.387 45.7675C228.535 44.2917 231.043 42.4083 233.909 40.1152C236.753 37.8133 239.089 35.8156 240.917 34.123L243.761 31.4824Z" fill="#2565FF"/>
<path d="M156.139 25.2874V70.7842C156.139 80.8044 153.533 88.2518 148.32 93.1265C143.106 98.0011 135.49 100.438 125.47 100.438C120.189 100.438 115.179 99.7953 110.439 98.5089C105.7 97.2225 101.773 95.3607 98.6589 92.9234L104.955 81.5491C107.257 83.4448 110.168 84.9343 113.689 86.0176C117.21 87.1685 120.73 87.744 124.251 87.744C129.735 87.744 133.763 86.4915 136.336 83.9865C138.976 81.5491 140.297 77.8254 140.297 72.8154V70.4796C136.167 75.0157 130.412 77.2838 123.032 77.2838C118.022 77.2838 113.418 76.2005 109.221 74.034C105.091 71.7998 101.807 68.6854 99.3697 64.6909C96.9324 60.6964 95.7137 56.0925 95.7137 50.8794C95.7137 45.6662 96.9324 41.0623 99.3697 37.0678C101.807 33.0733 105.091 29.9928 109.221 27.8262C113.418 25.592 118.022 24.4749 123.032 24.4749C130.954 24.4749 136.979 27.0815 141.109 32.2947V25.2874H156.139ZM126.18 64.2847C130.378 64.2847 133.797 63.066 136.438 60.6287C139.146 58.1237 140.5 54.8739 140.5 50.8794C140.5 46.8848 139.146 43.6689 136.438 41.2316C133.797 38.7265 130.378 37.474 126.18 37.474C121.983 37.474 118.53 38.7265 115.822 41.2316C113.114 43.6689 111.76 46.8848 111.76 50.8794C111.76 54.8739 113.114 58.1237 115.822 60.6287C118.53 63.066 121.983 64.2847 126.18 64.2847Z" fill="#19181B"/>
<path d="M69.23 25.2873H85.0726V79.9242H69.23V25.2873ZM77.1513 17.6707C74.24 17.6707 71.8704 16.8244 70.0424 15.1318C68.2144 13.4392 67.3004 11.3404 67.3004 8.83533C67.3004 6.3303 68.2144 4.23148 70.0424 2.53889C71.8704 0.846298 74.24 0 77.1513 0C80.0626 0 82.4322 0.812448 84.2602 2.43734C86.0882 4.06223 87.0022 6.09334 87.0022 8.53067C87.0022 11.1711 86.0882 13.3715 84.2602 15.1318C82.4322 16.8244 80.0626 17.6707 77.1513 17.6707Z" fill="#19181B"/>
<path d="M28.9433 81.1429C23.3239 81.1429 17.8738 80.3982 12.5929 78.9087C7.3797 77.3515 3.18207 75.3543 0 72.9169L5.58556 60.5271C8.63222 62.7614 12.2544 64.5555 16.452 65.9096C20.6496 67.2637 24.8473 67.9407 29.0449 67.9407C33.7164 67.9407 37.1693 67.2637 39.4036 65.9096C41.6378 64.4878 42.7549 62.626 42.7549 60.324C42.7549 58.6314 42.0779 57.2435 40.7238 56.1603C39.4374 55.0093 37.7448 54.0953 35.646 53.4183C33.6149 52.7412 30.839 51.9965 27.3184 51.184C21.9021 49.8977 17.4676 48.6113 14.0147 47.3249C10.5618 46.0386 7.58282 43.9736 5.07778 41.13C2.64044 38.2865 1.42178 34.4951 1.42178 29.7558C1.42178 25.6259 2.53889 21.9022 4.77311 18.5847C7.00733 15.1995 10.3587 12.5252 14.8271 10.5618C19.3633 8.5984 24.8811 7.6167 31.3807 7.6167C35.9168 7.6167 40.3514 8.15833 44.6844 9.24158C49.0175 10.3248 52.8089 11.882 56.0587 13.9131L50.9809 26.4045C44.4136 22.6808 37.8464 20.8189 31.2791 20.8189C26.6753 20.8189 23.2562 21.5637 21.022 23.0531C18.8555 24.5426 17.7722 26.506 17.7722 28.9434C17.7722 31.3807 19.0247 33.2087 21.5298 34.4274C24.1025 35.5783 27.9955 36.7293 33.2087 37.8803C38.625 39.1666 43.0596 40.453 46.5124 41.7394C49.9653 43.0257 52.9104 45.0568 55.3478 47.8327C57.8528 50.6085 59.1053 54.3661 59.1053 59.1054C59.1053 63.1676 57.9544 66.8913 55.6525 70.2765C53.4182 73.594 50.033 76.2344 45.4969 78.1978C40.9607 80.1612 35.4429 81.1429 28.9433 81.1429Z" fill="#19181B"/>
</svg>
