<svg width="413" height="101" viewBox="0 0 413 101" fill="none" xmlns="http://www.w3.org/2000/svg">
<path d="M355.058 85.6113C354.313 85.6113 353.602 85.5775 352.925 85.5098C352.316 85.5098 351.842 85.4759 351.504 85.4082C349.608 84.8666 347.915 83.9865 346.426 82.7678C344.936 81.6168 343.819 80.195 343.075 78.5025C342.601 77.5546 342.296 76.7083 342.161 75.9636C342.025 75.1511 341.957 74.3387 341.957 73.5262C341.957 72.443 342.059 71.3936 342.262 70.378C341.653 69.9718 341.01 69.5317 340.333 69.0578C339.655 68.5162 339.148 68.0084 338.809 67.5345C337.184 65.3679 336.372 63.066 336.372 60.6287C336.372 59.0038 336.744 57.4466 337.489 55.9571C338.166 54.4676 339.114 53.1813 340.333 52.098C340.671 51.7595 341.314 51.1163 342.262 50.1684C343.142 49.2206 343.955 48.2727 344.699 47.3249L346.731 45.0907C347.678 44.0751 348.66 43.0257 349.676 41.9425C350.691 40.8592 351.639 39.8775 352.519 38.9973C353.602 38.0495 354.55 37.237 355.363 36.56C356.175 35.883 356.886 35.3413 357.495 34.9351C361.016 32.7686 364.672 32.0916 368.463 32.904C372.39 33.9196 374.997 36.1199 376.283 39.5051L376.182 39.4036C376.452 40.0129 376.656 40.6222 376.791 41.2316C376.994 41.7732 377.129 42.3487 377.197 42.958C378.145 41.9425 378.991 40.9946 379.736 40.1145C380.481 39.1666 381.158 38.3203 381.767 37.5756L383.189 35.9507C383.324 35.8153 383.426 35.6799 383.494 35.5445C383.629 35.3413 383.697 35.2398 383.697 35.2398C385.254 33.4118 387.082 32.1254 389.181 31.3807C391.347 30.5682 393.514 30.4328 395.68 30.9745C397.17 31.3807 398.524 32.1254 399.743 33.2087C401.029 34.2919 402.078 35.5445 402.891 36.9662C403.839 39.1327 404.245 40.9946 404.109 42.5518C404.042 44.0413 403.94 45.0568 403.805 45.5984C403.737 45.8693 403.635 46.1739 403.5 46.5125C403.432 46.851 403.365 47.1556 403.297 47.4265L402.688 49.356L402.586 49.6607C403.94 49.7284 405.294 50.1007 406.648 50.7778C408.002 51.3871 409.119 52.2334 410 53.3167C410.88 54.3999 411.523 55.5847 411.929 56.8711C412.403 58.1575 412.64 59.41 412.64 60.6287C412.64 64.0139 411.252 66.8913 408.476 69.2609L407.969 69.7687C406.547 70.9873 405.023 72.206 403.399 73.4247C401.841 74.6433 400.183 75.7943 398.422 76.8776C394.428 79.2472 390.501 80.432 386.642 80.432C385.017 80.432 383.392 80.195 381.767 79.7211C380.548 79.4503 379.398 78.9764 378.314 78.2993C377.299 77.6223 376.419 76.8437 375.674 75.9636C374.861 76.6406 374.083 77.2838 373.338 77.8931C372.593 78.4347 371.747 79.0102 370.799 79.6196H370.901C369.344 80.7028 367.854 81.6168 366.432 82.3616C365.011 83.1063 363.656 83.7495 362.37 84.2911C361.287 84.765 360.068 85.1036 358.714 85.3067C357.428 85.5098 356.209 85.6113 355.058 85.6113Z" fill="#2565FF"/>
<path d="M333.082 75.9636C332.27 75.9636 331.356 75.862 330.34 75.6589C327.226 74.8464 324.856 72.9846 323.232 70.0733C321.336 70.8181 319.372 70.9873 317.341 70.5811C315.242 70.1072 313.448 69.0239 311.959 67.3313C310.131 65.2325 309.318 62.7952 309.521 60.0193C309.657 57.1758 310.774 54.84 312.873 53.012C313.618 52.4027 314.43 51.6918 315.31 50.8793C316.123 49.9992 317.003 49.119 317.951 48.2389C319.576 46.614 321.268 44.9553 323.028 43.2627C324.856 41.5701 326.617 40.0806 328.309 38.7942C329.46 37.9141 330.544 37.1355 331.559 36.4584C332.642 35.7814 333.658 35.2059 334.606 34.732C338.126 33.0394 341.579 32.5655 344.964 33.3102C348.824 34.3935 351.498 36.8647 352.987 40.7238C353.935 43.4319 353.901 46.2755 352.886 49.2545C352.75 49.593 352.615 49.9315 352.479 50.27C352.344 50.6085 352.175 50.9809 351.972 51.3871C354.409 52.5381 356.169 54.4338 357.253 57.0742C358.2 59.7824 358.099 62.4228 356.948 64.9956C355.797 67.5006 353.867 69.227 351.159 70.1749C349.06 70.9873 347.131 71.7321 345.371 72.4091C343.61 73.0184 342.121 73.5262 340.902 73.9325C340.225 74.2033 339.582 74.4402 338.973 74.6433C338.431 74.8464 337.991 75.0157 337.652 75.1511C336.975 75.2865 336.264 75.4558 335.52 75.6589C334.775 75.862 333.963 75.9636 333.082 75.9636Z" fill="#2565FF"/>
<path d="M295.317 77.9947C294.369 77.9947 293.32 77.8254 292.169 77.4869C288.716 76.6745 286.346 74.5756 285.06 71.1905C283.977 68.6177 284.011 65.7065 285.162 62.4567C285.568 61.3057 286.177 59.9516 286.99 58.3945C287.125 58.1236 287.26 57.819 287.396 57.4805C287.599 57.1419 287.802 56.8373 288.005 56.5665C286.516 57.3789 284.992 58.259 283.435 59.2069C281.946 60.087 280.422 60.9333 278.865 61.7458C276.157 63.4384 273.517 64.9956 270.944 66.4173C268.371 67.7714 266.002 68.9224 263.835 69.8702C261.33 71.0212 258.757 71.0889 256.117 70.0733C253.476 69.0578 251.614 67.2636 250.531 64.6909C249.38 62.1182 249.313 59.5454 250.328 56.9727C251.344 54.3322 253.138 52.4704 255.711 51.3871C257.268 50.6424 259.197 49.6607 261.499 48.442C263.801 47.1556 266.205 45.7677 268.71 44.2782C271.689 42.5179 274.837 40.7238 278.154 38.8958C281.472 37.0001 284.688 35.3752 287.802 34.0211C291.39 32.2608 294.742 31.076 297.856 30.4667C300.023 29.925 302.054 29.6204 303.949 29.5527C305.845 29.485 307.639 29.6881 309.332 30.162C313.056 31.2453 315.594 33.5472 316.949 37.0678C317.964 39.5728 318.1 42.0779 317.355 44.5829C316.678 47.0202 315.764 49.3222 314.613 51.4887C314.816 51.421 315.019 51.3533 315.222 51.2856C315.493 51.2179 315.73 51.1502 315.933 51.0824C318.506 50.1346 321.045 50.27 323.55 51.4887C326.122 52.6396 327.883 54.5353 328.831 57.1758C329.778 59.8162 329.677 62.4228 328.526 64.9956C327.375 67.5006 325.445 69.227 322.737 70.1749C319.623 71.2582 316.712 72.2737 314.003 73.2216C311.363 74.1694 309.027 74.9819 306.996 75.6589C304.22 76.4713 301.918 77.0807 300.09 77.4869C298.33 77.8254 296.739 77.9947 295.317 77.9947Z" fill="#2565FF"/>
<path d="M243.557 79.0102C241.052 79.0102 238.919 78.2655 237.159 76.776C235.534 75.4896 234.417 73.8648 233.808 71.9013C233.199 69.8702 233.165 67.9068 233.706 66.0111C233.706 66.0111 233.74 65.9434 233.808 65.808C233.876 65.6049 233.943 65.3679 234.011 65.0971C230.287 67.3313 226.902 69.0239 223.855 70.1749C221.283 71.1228 218.71 71.0212 216.137 69.8702C213.564 68.6516 211.804 66.7559 210.856 64.1831C209.841 61.5427 209.942 58.9361 211.161 56.3633C212.38 53.7906 214.275 52.0303 216.848 51.0825C217.999 50.6762 219.929 49.6945 222.637 48.1373C225.413 46.5802 229.17 43.9059 233.909 40.1145C236.753 37.8125 239.089 35.8153 240.917 34.1227C242.812 32.3624 243.76 31.4822 243.76 31.4822C246.536 28.8418 249.786 27.9955 253.51 28.9433C256.285 29.6881 258.384 31.313 259.806 33.818C260.889 35.7137 261.363 37.6433 261.228 39.6067C261.092 41.5701 260.72 43.8382 260.111 46.4109C260.043 47.0879 259.908 47.765 259.705 48.442C259.501 49.0513 259.298 49.7284 259.095 50.4731C261.262 50.3377 263.259 50.8116 265.087 51.8949C266.983 52.9782 268.371 54.5353 269.251 56.5665C270.402 59.0715 270.469 61.6442 269.454 64.2847C268.438 66.8574 266.644 68.7193 264.071 69.8702C261.16 71.1566 258.52 72.4091 256.15 73.6278C253.848 74.8465 251.986 75.8282 250.565 76.5729C249.21 77.3176 248.5 77.69 248.432 77.69C246.807 78.5702 245.182 79.0102 243.557 79.0102Z" fill="#2565FF"/>
<path d="M205.84 75.9636C205.028 75.9636 204.114 75.862 203.098 75.6589C199.984 74.8464 197.614 72.9846 195.99 70.0733C194.094 70.8181 192.13 70.9873 190.099 70.5811C188 70.1072 186.206 69.0239 184.717 67.3313C182.889 65.2325 182.076 62.7952 182.28 60.0193C182.415 57.1758 183.532 54.84 185.631 53.012C186.376 52.4027 187.188 51.6918 188.068 50.8793C188.881 49.9992 189.761 49.119 190.709 48.2389C192.334 46.614 194.026 44.9553 195.786 43.2627C197.614 41.5701 199.375 40.0806 201.067 38.7942C202.218 37.9141 203.302 37.1355 204.317 36.4584C205.4 35.7814 206.416 35.2059 207.364 34.732C210.884 33.0394 214.337 32.5655 217.722 33.3102C221.582 34.3935 224.256 36.8647 225.745 40.7238C226.693 43.4319 226.659 46.2755 225.644 49.2545C225.508 49.593 225.373 49.9315 225.238 50.27C225.102 50.6085 224.933 50.9809 224.73 51.3871C227.167 52.5381 228.927 54.4338 230.011 57.0742C230.958 59.7824 230.857 62.4228 229.706 64.9956C228.555 67.5006 226.625 69.227 223.917 70.1749C221.819 70.9873 219.889 71.7321 218.129 72.4091C216.368 73.0184 214.879 73.5262 213.66 73.9325C212.983 74.2033 212.34 74.4402 211.731 74.6433C211.189 74.8464 210.749 75.0157 210.41 75.1511C209.733 75.2865 209.023 75.4558 208.278 75.6589C207.533 75.862 206.721 75.9636 205.84 75.9636Z" fill="#2565FF"/>
<path d="M156.139 25.2873V70.7842C156.139 80.8044 153.533 88.2518 148.32 93.1265C143.106 98.0011 135.49 100.438 125.47 100.438C120.189 100.438 115.179 99.7953 110.439 98.5089C105.7 97.2225 101.773 95.3607 98.6588 92.9233L104.955 81.5491C107.257 83.4448 110.168 84.9343 113.689 86.0176C117.21 87.1685 120.73 87.744 124.251 87.744C129.735 87.744 133.763 86.4915 136.336 83.9865C138.976 81.5491 140.297 77.8254 140.297 72.8153V70.4796C136.167 75.0157 130.412 77.2838 123.032 77.2838C118.022 77.2838 113.418 76.2005 109.221 74.034C105.091 71.7998 101.807 68.6854 99.3697 64.6909C96.9324 60.6964 95.7137 56.0925 95.7137 50.8793C95.7137 45.6662 96.9324 41.0623 99.3697 37.0678C101.807 33.0733 105.091 29.9927 109.221 27.8262C113.418 25.592 118.022 24.4749 123.032 24.4749C130.954 24.4749 136.979 27.0815 141.109 32.2947V25.2873H156.139ZM126.18 64.2847C130.378 64.2847 133.797 63.066 136.438 60.6287C139.146 58.1236 140.5 54.8739 140.5 50.8793C140.5 46.8848 139.146 43.6689 136.438 41.2316C133.797 38.7265 130.378 37.474 126.18 37.474C121.983 37.474 118.53 38.7265 115.822 41.2316C113.114 43.6689 111.76 46.8848 111.76 50.8793C111.76 54.8739 113.114 58.1236 115.822 60.6287C118.53 63.066 121.983 64.2847 126.18 64.2847Z" fill="white"/>
<path d="M69.23 25.2873H85.0726V79.9242H69.23V25.2873ZM77.1513 17.6707C74.24 17.6707 71.8704 16.8244 70.0424 15.1318C68.2144 13.4392 67.3004 11.3404 67.3004 8.83533C67.3004 6.3303 68.2144 4.23148 70.0424 2.53889C71.8704 0.846298 74.24 0 77.1513 0C80.0626 0 82.4322 0.812448 84.2602 2.43734C86.0882 4.06223 87.0022 6.09334 87.0022 8.53067C87.0022 11.1711 86.0882 13.3715 84.2602 15.1318C82.4322 16.8244 80.0626 17.6707 77.1513 17.6707Z" fill="white"/>
<path d="M28.9433 81.1429C23.3239 81.1429 17.8738 80.3982 12.5929 78.9087C7.3797 77.3515 3.18207 75.3542 0 72.9169L5.58556 60.5271C8.63222 62.7613 12.2544 64.5555 16.452 65.9096C20.6496 67.2636 24.8473 67.9407 29.0449 67.9407C33.7164 67.9407 37.1693 67.2636 39.4036 65.9096C41.6378 64.4878 42.7549 62.6259 42.7549 60.324C42.7549 58.6314 42.0779 57.2435 40.7238 56.1602C39.4374 55.0093 37.7448 54.0953 35.646 53.4182C33.6149 52.7412 30.839 51.9964 27.3184 51.184C21.9021 49.8976 17.4676 48.6113 14.0147 47.3249C10.5618 46.0385 7.58281 43.9736 5.07778 41.13C2.64044 38.2864 1.42178 34.495 1.42178 29.7558C1.42178 25.6259 2.53889 21.9022 4.77311 18.5847C7.00733 15.1995 10.3587 12.5252 14.8271 10.5618C19.3633 8.59838 24.8811 7.61668 31.3807 7.61668C35.9168 7.61668 40.3514 8.1583 44.6844 9.24156C49.0175 10.3248 52.8089 11.882 56.0587 13.9131L50.9809 26.4045C44.4136 22.6808 37.8464 20.8189 31.2791 20.8189C26.6753 20.8189 23.2562 21.5636 21.022 23.0531C18.8555 24.5426 17.7722 26.506 17.7722 28.9433C17.7722 31.3807 19.0247 33.2087 21.5298 34.4273C24.1025 35.5783 27.9955 36.7293 33.2087 37.8802C38.625 39.1666 43.0596 40.453 46.5124 41.7393C49.9653 43.0257 52.9104 45.0568 55.3478 47.8327C57.8528 50.6085 59.1053 54.3661 59.1053 59.1053C59.1053 63.1676 57.9544 66.8913 55.6525 70.2765C53.4182 73.5939 50.033 76.2344 45.4969 78.1978C40.9607 80.1612 35.4429 81.1429 28.9433 81.1429Z" fill="white"/>
</svg>
