<svg width="290" height="53" viewBox="0 0 290 53" fill="none" xmlns="http://www.w3.org/2000/svg"><path fill-rule="evenodd" clip-rule="evenodd" d="M12.6762 2.85849C12.6249 2.74318 12.6768 2.60809 12.792 2.55675L18.4803 0.0230151C18.6142 -0.036613 18.771 0.0236181 18.8306 0.157545L19.2363 1.06905C19.2872 1.18355 19.4113 1.24679 19.5338 1.22073L23.0189 0.479612C23.1623 0.449132 23.3032 0.540669 23.3336 0.684067L25.4123 10.468C25.4786 10.7798 25.9372 10.7315 25.9372 10.4129V1.84488C25.9372 1.69827 26.056 1.57943 26.2025 1.57943H27.1653C27.3118 1.57943 27.4306 1.69827 27.4306 1.84488V9.61052C27.4306 9.9292 27.8892 9.97743 27.9555 9.66571L29.9183 0.427165C29.9488 0.283768 30.0897 0.19223 30.233 0.22271L34.0963 1.04425C34.2396 1.07473 34.3311 1.21569 34.3007 1.35908L32.5719 9.49591C32.5057 9.80763 32.9443 9.9502 33.0738 9.65907L35.8168 3.49538C35.8764 3.36145 36.0333 3.30122 36.1671 3.36085L37.3877 3.90454C37.5216 3.96417 37.5818 4.12108 37.5222 4.25501L35.109 9.67769C34.9794 9.96882 35.3788 10.1995 35.566 9.94168L40.0768 3.73024C40.163 3.61163 40.3289 3.58534 40.4475 3.67151L43.9448 6.21363C44.0634 6.2998 44.0896 6.4658 44.0035 6.5844L40.1868 11.84C39.9996 12.0978 40.3423 12.4065 40.579 12.1933L44.3094 8.83292C44.4183 8.73482 44.586 8.74362 44.6841 8.85257L45.828 10.1235C45.926 10.2325 45.9172 10.4003 45.8083 10.4984L42.4474 13.5259C42.2107 13.7392 42.4818 14.1124 42.7576 13.9531L48.125 10.8528C48.2519 10.7795 48.4142 10.823 48.4875 10.95L50.8356 15.0189C50.9089 15.1459 50.8654 15.3082 50.7385 15.3815L46.6107 17.7658C46.3348 17.9252 46.5224 18.3466 46.8253 18.2482L49.9695 17.2261C50.1088 17.1808 50.2585 17.2571 50.3038 17.3965L50.9474 19.3783C50.9927 19.5177 50.9164 19.6675 50.7771 19.7128L48.0003 20.6154C47.6973 20.7139 47.7932 21.1652 48.11 21.1319L52.6846 20.6509C52.8304 20.6355 52.9609 20.7413 52.9762 20.8871L53.5062 25.9313C53.5215 26.0771 53.4158 26.2077 53.27 26.223L49.9271 26.5745C49.6104 26.6078 49.6104 27.0692 49.9271 27.1025L51.7984 27.2993C51.9441 27.3146 52.0499 27.4452 52.0345 27.591L51.7778 30.0348C51.7625 30.1806 51.6319 30.2864 51.4862 30.2711L49.9782 30.1125C49.6614 30.0792 49.5655 30.5305 49.8685 30.629L52.8446 31.5964C52.984 31.6417 53.0603 31.7915 53.015 31.9309L51.333 37.1098C51.2877 37.2493 51.138 37.3256 50.9987 37.2803L49.4601 36.7801C49.1572 36.6817 48.9696 37.1031 49.2455 37.2625L49.4636 37.3885C49.5905 37.4618 49.634 37.6242 49.5608 37.7511L48.1257 40.2377C48.0637 40.3453 47.9261 40.3822 47.8186 40.3201V40.3201C47.5848 40.185 47.3551 40.5014 47.5557 40.6821L48.6736 41.689C48.7825 41.7871 48.7913 41.955 48.6932 42.0639L44.8013 46.3883C44.7032 46.4972 44.5355 46.506 44.4266 46.4079L43.4912 45.5654C43.3602 45.4473 43.1705 45.6182 43.2741 45.761V45.761C43.3218 45.8266 43.3073 45.9185 43.2416 45.9662L40.4023 48.03C40.3679 48.0551 40.3197 48.0474 40.2946 48.0129V48.0129C40.2402 47.938 40.1241 48.0051 40.1618 48.0897L40.7525 49.4169C40.8041 49.5329 40.7519 49.6688 40.636 49.7204L34.8674 52.2899C34.7785 52.3295 34.6745 52.2895 34.6349 52.2007L34.1087 51.0183C34.0891 50.9743 34.0229 50.9958 34.0329 51.0429V51.0429C34.0375 51.0646 34.0237 51.0858 34.002 51.0905L30.2836 51.8812C30.1403 51.9117 29.9994 51.8201 29.9689 51.6767L27.9555 42.1999C27.8892 41.8882 27.4306 41.9364 27.4306 42.2551V50.4764C27.4306 50.623 27.3118 50.7418 27.1653 50.7418H26.2025C26.056 50.7418 25.9372 50.623 25.9372 50.4764V43.2493C25.9372 42.9307 25.4786 42.8824 25.4123 43.1941L23.5702 51.8646C23.5397 52.008 23.3989 52.0995 23.2555 52.069L19.3922 51.2475C19.2489 51.217 19.1574 51.0761 19.1879 50.9327L20.8907 42.9178C20.9569 42.6061 20.5183 42.4635 20.3888 42.7546L17.5983 49.025C17.5387 49.1589 17.3819 49.2191 17.248 49.1595L16.0274 48.6158C15.8935 48.5562 15.8333 48.3993 15.8929 48.2653L18.2828 42.8952C18.4123 42.6041 18.013 42.3734 17.8257 42.6312L13.4471 48.6606C13.361 48.7793 13.195 48.8055 13.0765 48.7194L9.57913 46.1773C9.46058 46.0911 9.4343 45.9251 9.52043 45.8065L13.5377 40.2746C13.725 40.0168 13.3823 39.7081 13.1456 39.9214L9.12679 43.5415C9.0179 43.6396 8.85013 43.6308 8.75208 43.5218L7.60822 42.2509C7.51016 42.1419 7.51896 41.9741 7.62785 41.876L10.6816 39.1252C10.9183 38.9119 10.6473 38.5387 10.3714 38.698L5.39274 41.5737C5.26583 41.647 5.10356 41.6035 5.03029 41.4766L2.68214 37.4076C2.60887 37.2806 2.65235 37.1183 2.77925 37.045L7.44232 34.3516C7.71818 34.1922 7.53061 33.7708 7.22766 33.8692L3.47629 35.0887C3.33693 35.134 3.18725 35.0577 3.14196 34.9183L2.49833 32.9365C2.45305 32.797 2.52932 32.6473 2.66868 32.602L5.07955 31.8183C5.38249 31.7198 5.28661 31.2685 4.96983 31.3019L0.823006 31.7379C0.677274 31.7532 0.546717 31.6474 0.5314 31.5017L0.00147495 26.4575C-0.0138422 26.3117 0.09188 26.1811 0.237613 26.1657L3.83028 25.788C4.14706 25.7547 4.14706 25.2933 3.83027 25.26L1.65061 25.0308C1.50488 25.0155 1.39916 24.8849 1.41447 24.7391L1.67121 22.2952C1.68653 22.1494 1.81709 22.0437 1.96282 22.059L2.71982 22.1386C3.03661 22.1719 3.13249 21.7206 2.82954 21.6221L0.487057 20.8607C0.347694 20.8154 0.271426 20.6656 0.316707 20.5262L1.9987 15.3472C2.04398 15.2078 2.19366 15.1315 2.33303 15.1768L4.40528 15.8504C4.70823 15.9489 4.8958 15.5274 4.61994 15.3681L4.06207 15.0459C3.93517 14.9726 3.89169 14.8102 3.96496 14.6833L5.40227 12.1926C5.46309 12.0872 5.59779 12.0511 5.70313 12.112V12.112C5.93211 12.2442 6.15711 11.9344 5.96062 11.7574L4.67864 10.6026C4.56975 10.5045 4.56095 10.3367 4.659 10.2277L8.55093 5.90336C8.64898 5.79441 8.81674 5.78561 8.92564 5.88371L9.98456 6.8376C10.1334 6.97167 10.3489 6.77757 10.2311 6.61547V6.61547C10.177 6.5409 10.1935 6.43653 10.268 6.38235L13.1004 4.32363C13.1298 4.30226 13.1709 4.30878 13.1923 4.3382V4.3382C13.2387 4.40214 13.3378 4.34493 13.3056 4.27272L12.6762 2.85849Z" fill="#2565FF"/><path d="M278.797 37.6594C281.311 37.6594 283.425 36.8583 285.139 35.2559C285.267 35.1356 285.472 35.143 285.586 35.2767L288.203 38.3294C288.298 38.4404 288.3 38.6041 288.205 38.7151C287.171 39.9195 285.864 40.8376 284.285 41.4694C282.622 42.1346 280.747 42.4672 278.661 42.4672C276 42.4672 273.657 41.9381 271.631 40.8797C269.605 39.8214 268.032 38.3549 266.913 36.4801C265.825 34.5752 265.281 32.4283 265.281 30.0395C265.281 27.681 265.81 25.5643 266.868 23.6896C267.957 21.7846 269.438 20.303 271.313 19.2446C273.218 18.1863 275.365 17.6572 277.754 17.6572C280.022 17.6572 282.078 18.1561 283.922 19.1539C285.797 20.1215 287.279 21.5276 288.367 23.3721C289.419 25.1246 289.962 27.1733 289.998 29.5183C290 29.6629 289.898 29.7874 289.756 29.8152L271.812 33.325C271.624 33.3617 271.517 33.5611 271.599 33.7337C272.178 34.9594 273.051 35.9051 274.216 36.5709C275.486 37.2966 277.013 37.6594 278.797 37.6594ZM277.754 22.1928C275.667 22.1928 273.974 22.8732 272.674 24.2339C271.404 25.5946 270.769 27.4239 270.769 29.722C270.769 29.7455 270.79 29.7633 270.813 29.7588L284.148 27.1978C284.32 27.1648 284.429 26.9924 284.377 26.8251C283.957 25.4867 283.186 24.3962 282.063 23.5535C280.883 22.6464 279.447 22.1928 277.754 22.1928Z" fill="#2565FF"/><path d="M255.885 20.4373C255.885 20.7392 256.302 20.8701 256.498 20.6405C258.148 18.7072 260.715 17.7136 264.2 17.6595C264.367 17.6569 264.503 17.7926 264.503 17.9596V22.6902C264.503 22.8795 264.331 23.0218 264.143 22.9943C263.799 22.9438 263.481 22.9185 263.187 22.9185C260.98 22.9185 259.256 23.5686 258.017 24.8689C256.777 26.1388 256.157 27.9833 256.157 30.4024V41.8473C256.157 42.0143 256.022 42.1497 255.855 42.1497H250.79C250.623 42.1497 250.487 42.0143 250.487 41.8473V18.2317C250.487 18.0647 250.623 17.9293 250.79 17.9293H255.582C255.749 17.9293 255.885 18.0647 255.885 18.2317V20.4373Z" fill="#2565FF"/><path d="M235.652 37.6594C238.166 37.6594 240.28 36.8583 241.993 35.2559C242.122 35.1356 242.326 35.1429 242.441 35.2767L245.057 38.3294C245.153 38.4404 245.155 38.6041 245.06 38.715C244.026 39.9195 242.719 40.8376 241.14 41.4694C239.477 42.1346 237.602 42.4672 235.515 42.4672C232.855 42.4672 230.511 41.9381 228.485 40.8797C226.459 39.8214 224.887 38.3549 223.768 36.4801C222.68 34.5752 222.135 32.4283 222.135 30.0395C222.135 27.681 222.664 25.5643 223.723 23.6896C224.811 21.7846 226.293 20.303 228.168 19.2446C230.073 18.1863 232.22 17.6571 234.608 17.6571C236.876 17.6571 238.932 18.1561 240.777 19.1539C242.652 20.1215 244.133 21.5276 245.222 23.3721C246.273 25.1246 246.817 27.1733 246.853 29.5183C246.855 29.6629 246.752 29.7874 246.61 29.8152L228.666 33.325C228.479 33.3617 228.372 33.5611 228.453 33.7337C229.033 34.9594 229.905 35.9051 231.07 36.5709C232.34 37.2966 233.867 37.6594 235.652 37.6594ZM234.608 22.1928C232.522 22.1928 230.829 22.8732 229.528 24.2339C228.258 25.5946 227.623 27.4239 227.623 29.722C227.623 29.7455 227.645 29.7633 227.668 29.7588L241.003 27.1978C241.175 27.1648 241.283 26.9924 241.231 26.8251C240.812 25.4867 240.041 24.3962 238.917 23.5535C237.738 22.6464 236.302 22.1928 234.608 22.1928ZM226.178 8.94447C225.952 8.76688 226.078 8.4044 226.365 8.4044H232.032C232.113 8.4044 232.191 8.43688 232.248 8.49456L237.775 14.1035C237.963 14.2947 237.828 14.6183 237.56 14.6183H233.488C233.421 14.6183 233.355 14.5954 233.301 14.5534L226.178 8.94447Z" fill="#2565FF"/><path d="M208.277 17.6571C210.635 17.6571 212.737 18.1712 214.581 19.1992C216.456 20.2273 217.922 21.6787 218.981 23.5535C220.039 25.4282 220.568 27.5902 220.568 30.0395C220.568 32.4887 220.039 34.6659 218.981 36.5708C217.922 38.4456 216.456 39.897 214.581 40.9251C212.737 41.9531 210.635 42.4672 208.277 42.4672C206.614 42.4672 205.087 42.1799 203.696 41.6054C202.597 41.1417 201.637 40.4908 200.814 39.6528C200.615 39.4498 200.249 39.5848 200.249 39.8693V41.8473C200.249 42.0143 200.113 42.1497 199.946 42.1497H195.154C194.986 42.1497 194.851 42.0143 194.851 41.8473V8.79752C194.851 8.63049 194.986 8.49508 195.154 8.49508H200.218C200.385 8.49508 200.521 8.63049 200.521 8.79753V20.0984C200.521 20.3744 200.866 20.5119 201.068 20.3231C201.908 19.5349 202.86 18.9184 203.922 18.4735C205.253 17.9293 206.704 17.6571 208.277 17.6571ZM207.642 37.614C209.728 37.614 211.436 36.9186 212.767 35.5276C214.128 34.1367 214.808 32.3073 214.808 30.0395C214.808 27.7716 214.128 25.9423 212.767 24.5513C211.436 23.1604 209.728 22.4649 207.642 22.4649C206.281 22.4649 205.056 22.7824 203.968 23.4174C202.879 24.0222 202.017 24.8991 201.382 26.0481C200.747 27.1971 200.43 28.5276 200.43 30.0395C200.43 31.5514 200.747 32.8818 201.382 34.0309C202.017 35.1799 202.879 36.0719 203.968 36.7069C205.056 37.3117 206.281 37.614 207.642 37.614Z" fill="#2565FF"/><path d="M183.238 20.4373C183.238 20.7392 183.655 20.8701 183.851 20.6405C185.501 18.7072 188.068 17.7136 191.553 17.6595C191.72 17.6569 191.856 17.7926 191.856 17.9596V22.6902C191.856 22.8795 191.684 23.0218 191.496 22.9943C191.153 22.9438 190.834 22.9185 190.54 22.9185C188.333 22.9185 186.61 23.5686 185.37 24.8689C184.13 26.1388 183.51 27.9833 183.51 30.4024V41.8473C183.51 42.0143 183.375 42.1497 183.208 42.1497H178.143C177.976 42.1497 177.841 42.0143 177.841 41.8473V18.2317C177.841 18.0647 177.976 17.9293 178.143 17.9293H182.936C183.103 17.9293 183.238 18.0647 183.238 18.2317V20.4373Z" fill="#2565FF"/><path d="M163.005 37.6594C165.519 37.6594 167.633 36.8583 169.346 35.2559C169.475 35.1356 169.679 35.143 169.794 35.2767L172.41 38.3294C172.506 38.4404 172.508 38.6041 172.413 38.7151C171.379 39.9195 170.072 40.8376 168.493 41.4694C166.83 42.1346 164.955 42.4672 162.869 42.4672C160.208 42.4672 157.864 41.9381 155.838 40.8797C153.812 39.8214 152.24 38.3549 151.121 36.4801C150.033 34.5752 149.488 32.4283 149.488 30.0395C149.488 27.681 150.018 25.5643 151.076 23.6896C152.164 21.7846 153.646 20.303 155.521 19.2446C157.426 18.1863 159.573 17.6572 161.961 17.6572C164.229 17.6572 166.285 18.1561 168.13 19.1539C170.005 20.1215 171.486 21.5276 172.575 23.3721C173.626 25.1246 174.17 27.1733 174.206 29.5183C174.208 29.6629 174.105 29.7874 173.963 29.8152L156.019 33.325C155.832 33.3617 155.725 33.5611 155.806 33.7337C156.386 34.9594 157.259 35.9051 158.424 36.5709C159.694 37.2966 161.221 37.6594 163.005 37.6594ZM161.961 22.1928C159.875 22.1928 158.182 22.8732 156.882 24.2339C155.612 25.5946 154.977 27.4239 154.977 29.722C154.977 29.7455 154.998 29.7633 155.021 29.7588L168.356 27.1978C168.528 27.1648 168.637 26.9924 168.584 26.8251C168.165 25.4867 167.394 24.3962 166.27 23.5535C165.091 22.6464 163.655 22.1928 161.961 22.1928Z" fill="#2565FF"/><path d="M149.961 17.9293C150.178 17.9293 150.324 18.1513 150.239 18.3509L140.111 41.9665C140.064 42.0776 139.954 42.1497 139.833 42.1497H134.381C134.26 42.1497 134.151 42.0776 134.103 41.9665L123.976 18.3509C123.89 18.1513 124.037 17.9293 124.254 17.9293H129.49C129.612 17.9293 129.722 18.0024 129.769 18.1148L136.946 35.235C137.049 35.4809 137.397 35.4827 137.502 35.2379L144.898 18.1118C144.946 18.001 145.055 17.9293 145.175 17.9293H149.961Z" fill="#2565FF"/><path d="M113.348 37.6594C115.863 37.6594 117.977 36.8583 119.69 35.2559C119.819 35.1356 120.023 35.1429 120.137 35.2767L122.754 38.3294C122.849 38.4404 122.852 38.6041 122.756 38.715C121.722 39.9195 120.416 40.8376 118.836 41.4694C117.173 42.1346 115.298 42.4672 113.212 42.4672C110.551 42.4672 108.208 41.9381 106.182 40.8797C104.156 39.8214 102.583 38.3549 101.465 36.4801C100.376 34.5752 99.8318 32.4283 99.8318 30.0395C99.8318 27.681 100.361 25.5643 101.419 23.6896C102.508 21.7846 103.99 20.303 105.864 19.2446C107.769 18.1863 109.916 17.6571 112.305 17.6571C114.573 17.6571 116.629 18.1561 118.473 19.1539C120.348 20.1215 121.83 21.5276 122.918 23.3721C123.97 25.1246 124.513 27.1733 124.549 29.5183C124.552 29.6629 124.449 29.7874 124.307 29.8152L106.363 33.325C106.175 33.3617 106.068 33.5611 106.15 33.7337C106.73 34.9594 107.602 35.9051 108.767 36.5709C110.037 37.2966 111.564 37.6594 113.348 37.6594ZM112.305 22.1928C110.218 22.1928 108.525 22.8732 107.225 24.2339C105.955 25.5946 105.32 27.4239 105.32 29.722C105.32 29.7455 105.341 29.7633 105.365 29.7588L118.699 27.1978C118.871 27.1648 118.98 26.9924 118.928 26.8251C118.509 25.4867 117.737 24.3962 116.614 23.5535C115.435 22.6464 113.998 22.1928 112.305 22.1928ZM114.393 8.49456C114.45 8.43688 114.528 8.4044 114.609 8.4044H120.276C120.563 8.4044 120.689 8.76688 120.464 8.94447L113.34 14.5534C113.286 14.5954 113.22 14.6183 113.153 14.6183H109.082C108.813 14.6183 108.678 14.2947 108.866 14.1035L114.393 8.49456Z" fill="#2565FF"/><path d="M91.9412 42.1497C91.8424 42.1497 91.7498 42.1014 91.6932 42.0203L85.4003 32.999C85.3369 32.9082 85.229 32.8597 85.1186 32.8679C84.8572 32.8873 84.5087 32.897 84.0728 32.897H77.2089C77.0419 32.897 76.9065 33.0324 76.9065 33.1994V41.8473C76.9065 42.0143 76.7711 42.1497 76.604 42.1497H71.3126C71.1455 42.1497 71.0101 42.0143 71.0101 41.8473V10.7025C71.0101 10.5355 71.1455 10.4001 71.3126 10.4001H84.0728C86.8245 10.4001 89.2133 10.8536 91.2392 11.7608C93.2953 12.6679 94.8677 13.9681 95.9563 15.6614C97.0448 17.3548 97.5891 19.3656 97.5891 21.6939C97.5891 24.0827 96.9995 26.1388 95.8202 27.8624C94.7348 29.4904 93.1908 30.7272 91.1882 31.5729C91.0075 31.6492 90.9395 31.8727 91.0519 32.0334L97.8003 41.6738C97.9406 41.8743 97.7972 42.1497 97.5525 42.1497H91.9412ZM91.6474 21.6939C91.6474 19.6679 90.9822 18.1107 89.6517 17.0221C88.3212 15.9336 86.3709 15.3893 83.8007 15.3893H77.2089C77.0419 15.3893 76.9065 15.5247 76.9065 15.6918V27.7414C76.9065 27.9084 77.0419 28.0438 77.2089 28.0438H83.8007C86.3709 28.0438 88.3212 27.4995 89.6517 26.411C90.9822 25.2922 91.6474 23.7198 91.6474 21.6939Z" fill="#2565FF"/></svg>
